<svg width="815" height="25" viewBox="0 0 815 25" fill="none" xmlns="http://www.w3.org/2000/svg">
<path d="M0 2.71158C0 1.62127 0.942959 0.749023 2.12166 0.749023C3.30036 0.749023 4.24332 1.62127 4.24332 2.71158C4.24332 3.80189 3.30036 4.67413 2.12166 4.67413C0.942959 4.67413 0 3.80189 0 2.71158Z" fill="#5FAEC5"/>
<path d="M10.0186 2.71158C10.0186 1.62127 10.9615 0.749023 12.1402 0.749023C13.3189 0.749023 14.2619 1.62127 14.2619 2.71158C14.2619 3.80189 13.3189 4.67413 12.1402 4.67413C10.9615 4.67413 10.0186 3.80189 10.0186 2.71158Z" fill="#5FAEC5"/>
<path d="M20.0371 2.71158C20.0371 1.62127 20.9801 0.749023 22.1588 0.749023C23.3374 0.749023 24.2804 1.62127 24.2804 2.71158C24.2804 3.80189 23.3374 4.67413 22.1588 4.67413C20.9801 4.67413 20.0371 3.80189 20.0371 2.71158Z" fill="#5FAEC5"/>
<path d="M30.0557 2.71158C30.0557 1.62127 30.9986 0.749023 32.1773 0.749023C33.356 0.749023 34.299 1.62127 34.299 2.71158C34.299 3.80189 33.356 4.67413 32.1773 4.67413C30.9986 4.67413 30.0557 3.80189 30.0557 2.71158Z" fill="#5FAEC5"/>
<path d="M40.0742 2.71158C40.0742 1.62127 41.0172 0.749023 42.1959 0.749023C43.3746 0.749023 44.3175 1.62127 44.3175 2.71158C44.3175 3.80189 43.3746 4.67413 42.1959 4.67413C41.135 4.67413 40.0742 3.80189 40.0742 2.71158Z" fill="#5FAEC5"/>
<path d="M50.2148 2.71158C50.2148 1.62127 51.1578 0.749023 52.3365 0.749023C53.5152 0.749023 54.4581 1.62127 54.4581 2.71158C54.4581 3.80189 53.5152 4.67413 52.3365 4.67413C51.1578 4.67413 50.2148 3.80189 50.2148 2.71158Z" fill="#5FAEC5"/>
<path d="M60.2334 2.71158C60.2334 1.62127 61.1764 0.749023 62.355 0.749023C63.5337 0.749023 64.4767 1.62127 64.4767 2.71158C64.4767 3.80189 63.5337 4.67413 62.355 4.67413C61.1764 4.67413 60.2334 3.80189 60.2334 2.71158Z" fill="#5FAEC5"/>
<path d="M70.252 2.71158C70.252 1.62127 71.1949 0.749023 72.3736 0.749023C73.5523 0.749023 74.4952 1.62127 74.4952 2.71158C74.4952 3.80189 73.5523 4.67413 72.3736 4.67413C71.1949 4.67413 70.252 3.80189 70.252 2.71158Z" fill="#5FAEC5"/>
<path d="M80.2705 2.71158C80.2705 1.62127 81.2135 0.749023 82.3922 0.749023C83.5708 0.749023 84.5138 1.62127 84.5138 2.71158C84.5138 3.80189 83.5708 4.67413 82.3922 4.67413C81.2135 4.67413 80.2705 3.80189 80.2705 2.71158Z" fill="#5FAEC5"/>
<path d="M90.2891 2.71158C90.2891 1.62127 91.232 0.749023 92.4107 0.749023C93.5894 0.749023 94.5323 1.62127 94.5323 2.71158C94.5323 3.80189 93.5894 4.67413 92.4107 4.67413C91.232 4.67413 90.2891 3.80189 90.2891 2.71158Z" fill="#5FAEC5"/>
<path d="M100.309 2.71158C100.309 1.62127 101.252 0.749023 102.43 0.749023C103.609 0.749023 104.552 1.62127 104.552 2.71158C104.552 3.80189 103.609 4.67413 102.43 4.67413C101.252 4.67413 100.309 3.80189 100.309 2.71158Z" fill="#5FAEC5"/>
<path d="M110.326 2.71158C110.326 1.62127 111.269 0.749023 112.448 0.749023C113.627 0.749023 114.569 1.62127 114.569 2.71158C114.569 3.80189 113.627 4.67413 112.448 4.67413C111.269 4.67413 110.326 3.80189 110.326 2.71158Z" fill="#5FAEC5"/>
<path d="M120.345 2.71158C120.345 1.62127 121.288 0.749023 122.466 0.749023C123.645 0.749023 124.588 1.62127 124.588 2.71158C124.588 3.80189 123.645 4.67413 122.466 4.67413C121.406 4.67413 120.345 3.80189 120.345 2.71158Z" fill="#5FAEC5"/>
<path d="M130.482 2.71158C130.482 1.62127 131.425 0.749023 132.604 0.749023C133.783 0.749023 134.726 1.62127 134.726 2.71158C134.726 3.80189 133.783 4.67413 132.604 4.67413C131.425 4.67413 130.482 3.80189 130.482 2.71158Z" fill="#5FAEC5"/>
<path d="M140.504 2.71158C140.504 1.62127 141.447 0.749023 142.626 0.749023C143.804 0.749023 144.747 1.62127 144.747 2.71158C144.747 3.80189 143.804 4.67413 142.626 4.67413C141.447 4.67413 140.504 3.80189 140.504 2.71158Z" fill="#5FAEC5"/>
<path d="M150.522 2.71158C150.522 1.62127 151.465 0.749023 152.644 0.749023C153.823 0.749023 154.766 1.62127 154.766 2.71158C154.766 3.80189 153.823 4.67413 152.644 4.67413C151.465 4.67413 150.522 3.80189 150.522 2.71158Z" fill="#5FAEC5"/>
<path d="M160.54 2.71158C160.54 1.62127 161.483 0.749023 162.662 0.749023C163.84 0.749023 164.783 1.62127 164.783 2.71158C164.783 3.80189 163.84 4.67413 162.662 4.67413C161.483 4.67413 160.54 3.80189 160.54 2.71158Z" fill="#5FAEC5"/>
<path d="M170.559 2.71158C170.559 1.62127 171.502 0.749023 172.68 0.749023C173.859 0.749023 174.802 1.62127 174.802 2.71158C174.802 3.80189 173.859 4.67413 172.68 4.67413C171.502 4.67413 170.559 3.80189 170.559 2.71158Z" fill="#5FAEC5"/>
<path d="M180.578 2.71158C180.578 1.62127 181.521 0.749023 182.7 0.749023C183.879 0.749023 184.821 1.62127 184.821 2.71158C184.821 3.80189 183.879 4.67413 182.7 4.67413C181.521 4.67413 180.578 3.80189 180.578 2.71158Z" fill="#5FAEC5"/>
<path d="M190.597 2.71158C190.597 1.62127 191.54 0.749023 192.718 0.749023C193.897 0.749023 194.84 1.62127 194.84 2.71158C194.84 3.80189 193.897 4.67413 192.718 4.67413C191.54 4.67413 190.597 3.80189 190.597 2.71158Z" fill="#5FAEC5"/>
<path d="M200.615 2.71158C200.615 1.62127 201.558 0.749023 202.737 0.749023C203.916 0.749023 204.859 1.62127 204.859 2.71158C204.859 3.80189 203.916 4.67413 202.737 4.67413C201.676 4.67413 200.615 3.80189 200.615 2.71158Z" fill="#5FAEC5"/>
<path d="M210.75 2.71158C210.75 1.62127 211.693 0.749023 212.872 0.749023C214.05 0.749023 214.993 1.62127 214.993 2.71158C214.993 3.80189 214.05 4.67413 212.872 4.67413C211.693 4.67413 210.75 3.80189 210.75 2.71158Z" fill="#5FAEC5"/>
<path d="M220.769 2.71158C220.769 1.62127 221.712 0.749023 222.89 0.749023C224.069 0.749023 225.012 1.62127 225.012 2.71158C225.012 3.80189 224.069 4.67413 222.89 4.67413C221.712 4.67413 220.769 3.80189 220.769 2.71158Z" fill="#5FAEC5"/>
<path d="M230.789 2.71158C230.789 1.62127 231.732 0.749023 232.911 0.749023C234.089 0.749023 235.032 1.62127 235.032 2.71158C235.032 3.80189 234.089 4.67413 232.911 4.67413C231.732 4.67413 230.789 3.80189 230.789 2.71158Z" fill="#5FAEC5"/>
<path d="M240.807 2.71158C240.807 1.62127 241.75 0.749023 242.928 0.749023C244.107 0.749023 245.05 1.62127 245.05 2.71158C245.05 3.80189 244.107 4.67413 242.928 4.67413C241.75 4.67413 240.807 3.80189 240.807 2.71158Z" fill="#5FAEC5"/>
<path d="M5.07031 12.528C5.07031 11.4377 6.01327 10.5654 7.19197 10.5654C8.37067 10.5654 9.31363 11.4377 9.31363 12.528C9.31363 13.6183 8.37067 14.4905 7.19197 14.4905C6.01327 14.4905 5.07031 13.6183 5.07031 12.528Z" fill="#5FAEC5"/>
<path d="M15.0889 12.528C15.0889 11.4377 16.0318 10.5654 17.2105 10.5654C18.3892 10.5654 19.3322 11.4377 19.3322 12.528C19.3322 13.6183 18.3892 14.4905 17.2105 14.4905C16.0318 14.4905 15.0889 13.6183 15.0889 12.528Z" fill="#5FAEC5"/>
<path d="M25.1074 12.528C25.1074 11.4377 26.0504 10.5654 27.2291 10.5654C28.4078 10.5654 29.3507 11.4377 29.3507 12.528C29.3507 13.6183 28.4078 14.4905 27.2291 14.4905C26.0504 14.4905 25.1074 13.6183 25.1074 12.528Z" fill="#5FAEC5"/>
<path d="M35.125 12.528C35.125 11.4377 36.068 10.5654 37.2466 10.5654C38.4253 10.5654 39.3683 11.4377 39.3683 12.528C39.3683 13.6183 38.4253 14.4905 37.2466 14.4905C36.1858 14.4905 35.125 13.6183 35.125 12.528Z" fill="#5FAEC5"/>
<path d="M45.2588 12.528C45.2588 11.4377 46.2017 10.5654 47.3804 10.5654C48.5591 10.5654 49.5021 11.4377 49.5021 12.528C49.5021 13.6183 48.5591 14.4905 47.3804 14.4905C46.2017 14.4905 45.2588 13.6183 45.2588 12.528Z" fill="#5FAEC5"/>
<path d="M55.2793 12.528C55.2793 11.4377 56.2222 10.5654 57.4009 10.5654C58.5796 10.5654 59.5226 11.4377 59.5226 12.528C59.5226 13.6183 58.5796 14.4905 57.4009 14.4905C56.2222 14.4905 55.2793 13.6183 55.2793 12.528Z" fill="#5FAEC5"/>
<path d="M65.3008 12.528C65.3008 11.4377 66.2437 10.5654 67.4224 10.5654C68.6011 10.5654 69.5441 11.4377 69.5441 12.528C69.5441 13.6183 68.6011 14.4905 67.4224 14.4905C66.2437 14.4905 65.3008 13.6183 65.3008 12.528Z" fill="#5FAEC5"/>
<path d="M75.3223 12.528C75.3223 11.4377 76.2652 10.5654 77.4439 10.5654C78.6226 10.5654 79.5656 11.4377 79.5656 12.528C79.5656 13.6183 78.6226 14.4905 77.4439 14.4905C76.2652 14.4905 75.3223 13.6183 75.3223 12.528Z" fill="#5FAEC5"/>
<path d="M85.3398 12.528C85.3398 11.4377 86.2828 10.5654 87.4615 10.5654C88.6402 10.5654 89.5831 11.4377 89.5831 12.528C89.5831 13.6183 88.6402 14.4905 87.4615 14.4905C86.2828 14.4905 85.3398 13.6183 85.3398 12.528Z" fill="#5FAEC5"/>
<path d="M95.3594 12.528C95.3594 11.4377 96.3023 10.5654 97.481 10.5654C98.6597 10.5654 99.6027 11.4377 99.6027 12.528C99.6027 13.6183 98.6597 14.4905 97.481 14.4905C96.3023 14.4905 95.3594 13.6183 95.3594 12.528Z" fill="#5FAEC5"/>
<path d="M105.379 12.528C105.379 11.4377 106.322 10.5654 107.501 10.5654C108.679 10.5654 109.622 11.4377 109.622 12.528C109.622 13.6183 108.679 14.4905 107.501 14.4905C106.322 14.4905 105.379 13.6183 105.379 12.528Z" fill="#5FAEC5"/>
<path d="M115.396 12.528C115.396 11.4377 116.339 10.5654 117.518 10.5654C118.697 10.5654 119.64 11.4377 119.64 12.528C119.64 13.6183 118.697 14.4905 117.518 14.4905C116.457 14.4905 115.396 13.6183 115.396 12.528Z" fill="#5FAEC5"/>
<path d="M125.529 12.528C125.529 11.4377 126.472 10.5654 127.651 10.5654C128.83 10.5654 129.773 11.4377 129.773 12.528C129.773 13.6183 128.83 14.4905 127.651 14.4905C126.472 14.4905 125.529 13.6183 125.529 12.528Z" fill="#5FAEC5"/>
<path d="M135.547 12.528C135.547 11.4377 136.49 10.5654 137.669 10.5654C138.847 10.5654 139.79 11.4377 139.79 12.528C139.79 13.6183 138.847 14.4905 137.669 14.4905C136.49 14.4905 135.547 13.6183 135.547 12.528Z" fill="#5FAEC5"/>
<path d="M145.566 12.528C145.566 11.4377 146.509 10.5654 147.688 10.5654C148.867 10.5654 149.81 11.4377 149.81 12.528C149.81 13.6183 148.867 14.4905 147.688 14.4905C146.509 14.4905 145.566 13.6183 145.566 12.528Z" fill="#5FAEC5"/>
<path d="M155.586 12.528C155.586 11.4377 156.529 10.5654 157.708 10.5654C158.886 10.5654 159.829 11.4377 159.829 12.528C159.829 13.6183 158.886 14.4905 157.708 14.4905C156.529 14.4905 155.586 13.6183 155.586 12.528Z" fill="#5FAEC5"/>
<path d="M165.605 12.528C165.605 11.4377 166.548 10.5654 167.727 10.5654C168.906 10.5654 169.849 11.4377 169.849 12.528C169.849 13.6183 168.906 14.4905 167.727 14.4905C166.548 14.4905 165.605 13.6183 165.605 12.528Z" fill="#5FAEC5"/>
<path d="M175.625 12.528C175.625 11.4377 176.568 10.5654 177.747 10.5654C178.925 10.5654 179.868 11.4377 179.868 12.528C179.868 13.6183 178.925 14.4905 177.747 14.4905C176.568 14.4905 175.625 13.6183 175.625 12.528Z" fill="#5FAEC5"/>
<path d="M185.645 12.528C185.645 11.4377 186.587 10.5654 187.766 10.5654C188.945 10.5654 189.888 11.4377 189.888 12.528C189.888 13.6183 188.945 14.4905 187.766 14.4905C186.587 14.4905 185.645 13.6183 185.645 12.528Z" fill="#5FAEC5"/>
<path d="M195.664 12.528C195.664 11.4377 196.607 10.5654 197.786 10.5654C198.964 10.5654 199.907 11.4377 199.907 12.528C199.907 13.6183 198.964 14.4905 197.786 14.4905C196.725 14.4905 195.664 13.6183 195.664 12.528Z" fill="#5FAEC5"/>
<path d="M205.799 12.528C205.799 11.4377 206.742 10.5654 207.92 10.5654C209.099 10.5654 210.042 11.4377 210.042 12.528C210.042 13.6183 209.099 14.4905 207.92 14.4905C206.742 14.4905 205.799 13.6183 205.799 12.528Z" fill="#5FAEC5"/>
<path d="M215.817 12.528C215.817 11.4377 216.76 10.5654 217.939 10.5654C219.118 10.5654 220.061 11.4377 220.061 12.528C220.061 13.6183 219.118 14.4905 217.939 14.4905C216.76 14.4905 215.817 13.6183 215.817 12.528Z" fill="#5FAEC5"/>
<path d="M225.838 12.528C225.838 11.4377 226.781 10.5654 227.96 10.5654C229.138 10.5654 230.081 11.4377 230.081 12.528C230.081 13.6183 229.138 14.4905 227.96 14.4905C226.781 14.4905 225.838 13.6183 225.838 12.528Z" fill="#5FAEC5"/>
<path d="M235.855 12.528C235.855 11.4377 236.798 10.5654 237.977 10.5654C239.156 10.5654 240.099 11.4377 240.099 12.528C240.099 13.6183 239.156 14.4905 237.977 14.4905C236.798 14.4905 235.855 13.6183 235.855 12.528Z" fill="#5FAEC5"/>
<path d="M245.875 12.528C245.875 11.4377 246.818 10.5654 247.997 10.5654C249.175 10.5654 250.118 11.4377 250.118 12.528C250.118 13.6183 249.175 14.4905 247.997 14.4905C246.818 14.4905 245.875 13.6183 245.875 12.528Z" fill="#5FAEC5"/>
<path d="M0 22.3365C0 21.2463 0.942959 20.374 2.12166 20.374C3.30036 20.374 4.24332 21.2463 4.24332 22.3365C4.24332 23.4268 3.30036 24.2991 2.12166 24.2991C0.942959 24.2991 0 23.4268 0 22.3365Z" fill="#5FAEC5"/>
<path d="M10.0186 22.3365C10.0186 21.2463 10.9615 20.374 12.1402 20.374C13.3189 20.374 14.2619 21.2463 14.2619 22.3365C14.2619 23.4268 13.3189 24.2991 12.1402 24.2991C10.9615 24.2991 10.0186 23.4268 10.0186 22.3365Z" fill="#5FAEC5"/>
<path d="M20.0371 22.3365C20.0371 21.2463 20.9801 20.374 22.1588 20.374C23.3374 20.374 24.2804 21.2463 24.2804 22.3365C24.2804 23.4268 23.3374 24.2991 22.1588 24.2991C20.9801 24.2991 20.0371 23.4268 20.0371 22.3365Z" fill="#5FAEC5"/>
<path d="M30.0557 22.3365C30.0557 21.2463 30.9986 20.374 32.1773 20.374C33.356 20.374 34.299 21.2463 34.299 22.3365C34.299 23.4268 33.356 24.2991 32.1773 24.2991C30.9986 24.2991 30.0557 23.4268 30.0557 22.3365Z" fill="#5FAEC5"/>
<path d="M40.0742 22.3365C40.0742 21.2463 41.0172 20.374 42.1959 20.374C43.3746 20.374 44.3175 21.2463 44.3175 22.3365C44.3175 23.4268 43.3746 24.2991 42.1959 24.2991C41.135 24.2991 40.0742 23.4268 40.0742 22.3365Z" fill="#5FAEC5"/>
<path d="M50.2148 22.3365C50.2148 21.2463 51.1578 20.374 52.3365 20.374C53.5152 20.374 54.4581 21.2463 54.4581 22.3365C54.4581 23.4268 53.5152 24.2991 52.3365 24.2991C51.1578 24.2991 50.2148 23.4268 50.2148 22.3365Z" fill="#5FAEC5"/>
<path d="M60.2344 22.3365C60.2344 21.2463 61.1773 20.374 62.356 20.374C63.5347 20.374 64.4777 21.2463 64.4777 22.3365C64.4777 23.4268 63.5347 24.2991 62.356 24.2991C61.1773 24.2991 60.2344 23.4268 60.2344 22.3365Z" fill="#5FAEC5"/>
<path d="M70.252 22.3365C70.252 21.2463 71.1949 20.374 72.3736 20.374C73.5523 20.374 74.4952 21.2463 74.4952 22.3365C74.4952 23.4268 73.5523 24.2991 72.3736 24.2991C71.1949 24.2991 70.252 23.4268 70.252 22.3365Z" fill="#5FAEC5"/>
<path d="M80.2715 22.3365C80.2715 21.2463 81.2144 20.374 82.3931 20.374C83.5718 20.374 84.5148 21.2463 84.5148 22.3365C84.5148 23.4268 83.5718 24.2991 82.3931 24.2991C81.2144 24.2991 80.2715 23.4268 80.2715 22.3365Z" fill="#5FAEC5"/>
<path d="M90.2891 22.3365C90.2891 21.2463 91.232 20.374 92.4107 20.374C93.5894 20.374 94.5323 21.2463 94.5323 22.3365C94.5323 23.4268 93.5894 24.2991 92.4107 24.2991C91.232 24.2991 90.2891 23.4268 90.2891 22.3365Z" fill="#5FAEC5"/>
<path d="M100.309 22.3365C100.309 21.2463 101.252 20.374 102.43 20.374C103.609 20.374 104.552 21.2463 104.552 22.3365C104.552 23.4268 103.609 24.2991 102.43 24.2991C101.252 24.2991 100.309 23.4268 100.309 22.3365Z" fill="#5FAEC5"/>
<path d="M110.326 22.3365C110.326 21.2463 111.269 20.374 112.448 20.374C113.627 20.374 114.569 21.2463 114.569 22.3365C114.569 23.4268 113.627 24.2991 112.448 24.2991C111.269 24.2991 110.326 23.4268 110.326 22.3365Z" fill="#5FAEC5"/>
<path d="M120.345 22.3365C120.345 21.2463 121.288 20.374 122.466 20.374C123.645 20.374 124.588 21.2463 124.588 22.3365C124.588 23.4268 123.645 24.2991 122.466 24.2991C121.406 24.2991 120.345 23.4268 120.345 22.3365Z" fill="#5FAEC5"/>
<path d="M130.481 22.3365C130.481 21.2463 131.424 20.374 132.603 20.374C133.782 20.374 134.725 21.2463 134.725 22.3365C134.725 23.4268 133.782 24.2991 132.603 24.2991C131.424 24.2991 130.481 23.4268 130.481 22.3365Z" fill="#5FAEC5"/>
<path d="M140.504 22.3365C140.504 21.2463 141.447 20.374 142.626 20.374C143.804 20.374 144.747 21.2463 144.747 22.3365C144.747 23.4268 143.804 24.2991 142.626 24.2991C141.447 24.2991 140.504 23.4268 140.504 22.3365Z" fill="#5FAEC5"/>
<path d="M150.523 22.3365C150.523 21.2463 151.466 20.374 152.645 20.374C153.824 20.374 154.767 21.2463 154.767 22.3365C154.767 23.4268 153.824 24.2991 152.645 24.2991C151.466 24.2991 150.523 23.4268 150.523 22.3365Z" fill="#5FAEC5"/>
<path d="M160.541 22.3365C160.541 21.2463 161.484 20.374 162.663 20.374C163.841 20.374 164.784 21.2463 164.784 22.3365C164.784 23.4268 163.841 24.2991 162.663 24.2991C161.484 24.2991 160.541 23.4268 160.541 22.3365Z" fill="#5FAEC5"/>
<path d="M170.56 22.3365C170.56 21.2463 171.503 20.374 172.681 20.374C173.86 20.374 174.803 21.2463 174.803 22.3365C174.803 23.4268 173.86 24.2991 172.681 24.2991C171.503 24.2991 170.56 23.4268 170.56 22.3365Z" fill="#5FAEC5"/>
<path d="M180.578 22.3365C180.578 21.2463 181.521 20.374 182.7 20.374C183.879 20.374 184.821 21.2463 184.821 22.3365C184.821 23.4268 183.879 24.2991 182.7 24.2991C181.521 24.2991 180.578 23.4268 180.578 22.3365Z" fill="#5FAEC5"/>
<path d="M190.598 22.3365C190.598 21.2463 191.541 20.374 192.719 20.374C193.898 20.374 194.841 21.2463 194.841 22.3365C194.841 23.4268 193.898 24.2991 192.719 24.2991C191.541 24.2991 190.598 23.4268 190.598 22.3365Z" fill="#5FAEC5"/>
<path d="M200.616 22.3365C200.616 21.2463 201.559 20.374 202.738 20.374C203.917 20.374 204.86 21.2463 204.86 22.3365C204.86 23.4268 203.917 24.2991 202.738 24.2991C201.677 24.2991 200.616 23.4268 200.616 22.3365Z" fill="#5FAEC5"/>
<path d="M210.75 22.3365C210.75 21.2463 211.693 20.374 212.872 20.374C214.05 20.374 214.993 21.2463 214.993 22.3365C214.993 23.4268 214.05 24.2991 212.872 24.2991C211.693 24.2991 210.75 23.4268 210.75 22.3365Z" fill="#5FAEC5"/>
<path d="M220.769 22.3365C220.769 21.2463 221.712 20.374 222.89 20.374C224.069 20.374 225.012 21.2463 225.012 22.3365C225.012 23.4268 224.069 24.2991 222.89 24.2991C221.712 24.2991 220.769 23.4268 220.769 22.3365Z" fill="#5FAEC5"/>
<path d="M230.789 22.3365C230.789 21.2463 231.732 20.374 232.911 20.374C234.089 20.374 235.032 21.2463 235.032 22.3365C235.032 23.4268 234.089 24.2991 232.911 24.2991C231.732 24.2991 230.789 23.4268 230.789 22.3365Z" fill="#5FAEC5"/>
<path d="M240.807 22.3365C240.807 21.2463 241.75 20.374 242.928 20.374C244.107 20.374 245.05 21.2463 245.05 22.3365C245.05 23.4268 244.107 24.2991 242.928 24.2991C241.75 24.2991 240.807 23.4268 240.807 22.3365Z" fill="#5FAEC5"/>
<path d="M250 2.71158C250 1.62127 250.943 0.749023 252.122 0.749023C253.3 0.749023 254.243 1.62127 254.243 2.71158C254.243 3.80189 253.3 4.67413 252.122 4.67413C250.943 4.67413 250 3.80189 250 2.71158Z" fill="#5FAEC5"/>
<path d="M260.019 2.71158C260.019 1.62127 260.962 0.749023 262.14 0.749023C263.319 0.749023 264.262 1.62127 264.262 2.71158C264.262 3.80189 263.319 4.67413 262.14 4.67413C260.962 4.67413 260.019 3.80189 260.019 2.71158Z" fill="#5FAEC5"/>
<path d="M270.037 2.71158C270.037 1.62127 270.98 0.749023 272.159 0.749023C273.337 0.749023 274.28 1.62127 274.28 2.71158C274.28 3.80189 273.337 4.67413 272.159 4.67413C270.98 4.67413 270.037 3.80189 270.037 2.71158Z" fill="#5FAEC5"/>
<path d="M280.056 2.71158C280.056 1.62127 280.999 0.749023 282.177 0.749023C283.356 0.749023 284.299 1.62127 284.299 2.71158C284.299 3.80189 283.356 4.67413 282.177 4.67413C280.999 4.67413 280.056 3.80189 280.056 2.71158Z" fill="#5FAEC5"/>
<path d="M290.074 2.71158C290.074 1.62127 291.017 0.749023 292.196 0.749023C293.375 0.749023 294.318 1.62127 294.318 2.71158C294.318 3.80189 293.375 4.67413 292.196 4.67413C291.135 4.67413 290.074 3.80189 290.074 2.71158Z" fill="#5FAEC5"/>
<path d="M300.215 2.71158C300.215 1.62127 301.158 0.749023 302.336 0.749023C303.515 0.749023 304.458 1.62127 304.458 2.71158C304.458 3.80189 303.515 4.67413 302.336 4.67413C301.158 4.67413 300.215 3.80189 300.215 2.71158Z" fill="#5FAEC5"/>
<path d="M310.233 2.71158C310.233 1.62127 311.176 0.749023 312.355 0.749023C313.534 0.749023 314.477 1.62127 314.477 2.71158C314.477 3.80189 313.534 4.67413 312.355 4.67413C311.176 4.67413 310.233 3.80189 310.233 2.71158Z" fill="#5FAEC5"/>
<path d="M320.252 2.71158C320.252 1.62127 321.195 0.749023 322.374 0.749023C323.552 0.749023 324.495 1.62127 324.495 2.71158C324.495 3.80189 323.552 4.67413 322.374 4.67413C321.195 4.67413 320.252 3.80189 320.252 2.71158Z" fill="#5FAEC5"/>
<path d="M330.271 2.71158C330.271 1.62127 331.213 0.749023 332.392 0.749023C333.571 0.749023 334.514 1.62127 334.514 2.71158C334.514 3.80189 333.571 4.67413 332.392 4.67413C331.213 4.67413 330.271 3.80189 330.271 2.71158Z" fill="#5FAEC5"/>
<path d="M340.289 2.71158C340.289 1.62127 341.232 0.749023 342.411 0.749023C343.589 0.749023 344.532 1.62127 344.532 2.71158C344.532 3.80189 343.589 4.67413 342.411 4.67413C341.232 4.67413 340.289 3.80189 340.289 2.71158Z" fill="#5FAEC5"/>
<path d="M350.309 2.71158C350.309 1.62127 351.252 0.749023 352.43 0.749023C353.609 0.749023 354.552 1.62127 354.552 2.71158C354.552 3.80189 353.609 4.67413 352.43 4.67413C351.252 4.67413 350.309 3.80189 350.309 2.71158Z" fill="#5FAEC5"/>
<path d="M360.326 2.71158C360.326 1.62127 361.269 0.749023 362.448 0.749023C363.627 0.749023 364.569 1.62127 364.569 2.71158C364.569 3.80189 363.627 4.67413 362.448 4.67413C361.269 4.67413 360.326 3.80189 360.326 2.71158Z" fill="#5FAEC5"/>
<path d="M370.345 2.71158C370.345 1.62127 371.288 0.749023 372.466 0.749023C373.645 0.749023 374.588 1.62127 374.588 2.71158C374.588 3.80189 373.645 4.67413 372.466 4.67413C371.406 4.67413 370.345 3.80189 370.345 2.71158Z" fill="#5FAEC5"/>
<path d="M380.482 2.71158C380.482 1.62127 381.425 0.749023 382.604 0.749023C383.783 0.749023 384.726 1.62127 384.726 2.71158C384.726 3.80189 383.783 4.67413 382.604 4.67413C381.425 4.67413 380.482 3.80189 380.482 2.71158Z" fill="#5FAEC5"/>
<path d="M390.504 2.71158C390.504 1.62127 391.447 0.749023 392.626 0.749023C393.804 0.749023 394.747 1.62127 394.747 2.71158C394.747 3.80189 393.804 4.67413 392.626 4.67413C391.447 4.67413 390.504 3.80189 390.504 2.71158Z" fill="#5FAEC5"/>
<path d="M400.522 2.71158C400.522 1.62127 401.465 0.749023 402.644 0.749023C403.823 0.749023 404.766 1.62127 404.766 2.71158C404.766 3.80189 403.823 4.67413 402.644 4.67413C401.465 4.67413 400.522 3.80189 400.522 2.71158Z" fill="#5FAEC5"/>
<path d="M410.54 2.71158C410.54 1.62127 411.483 0.749023 412.662 0.749023C413.84 0.749023 414.783 1.62127 414.783 2.71158C414.783 3.80189 413.84 4.67413 412.662 4.67413C411.483 4.67413 410.54 3.80189 410.54 2.71158Z" fill="#5FAEC5"/>
<path d="M420.559 2.71158C420.559 1.62127 421.502 0.749023 422.68 0.749023C423.859 0.749023 424.802 1.62127 424.802 2.71158C424.802 3.80189 423.859 4.67413 422.68 4.67413C421.502 4.67413 420.559 3.80189 420.559 2.71158Z" fill="#5FAEC5"/>
<path d="M430.578 2.71158C430.578 1.62127 431.521 0.749023 432.7 0.749023C433.879 0.749023 434.821 1.62127 434.821 2.71158C434.821 3.80189 433.879 4.67413 432.7 4.67413C431.521 4.67413 430.578 3.80189 430.578 2.71158Z" fill="#5FAEC5"/>
<path d="M440.597 2.71158C440.597 1.62127 441.54 0.749023 442.718 0.749023C443.897 0.749023 444.84 1.62127 444.84 2.71158C444.84 3.80189 443.897 4.67413 442.718 4.67413C441.54 4.67413 440.597 3.80189 440.597 2.71158Z" fill="#5FAEC5"/>
<path d="M450.615 2.71158C450.615 1.62127 451.558 0.749023 452.737 0.749023C453.916 0.749023 454.859 1.62127 454.859 2.71158C454.859 3.80189 453.916 4.67413 452.737 4.67413C451.676 4.67413 450.615 3.80189 450.615 2.71158Z" fill="#5FAEC5"/>
<path d="M460.75 2.71158C460.75 1.62127 461.693 0.749023 462.872 0.749023C464.05 0.749023 464.993 1.62127 464.993 2.71158C464.993 3.80189 464.05 4.67413 462.872 4.67413C461.693 4.67413 460.75 3.80189 460.75 2.71158Z" fill="#5FAEC5"/>
<path d="M470.769 2.71158C470.769 1.62127 471.712 0.749023 472.89 0.749023C474.069 0.749023 475.012 1.62127 475.012 2.71158C475.012 3.80189 474.069 4.67413 472.89 4.67413C471.712 4.67413 470.769 3.80189 470.769 2.71158Z" fill="#5FAEC5"/>
<path d="M480.789 2.71158C480.789 1.62127 481.732 0.749023 482.911 0.749023C484.089 0.749023 485.032 1.62127 485.032 2.71158C485.032 3.80189 484.089 4.67413 482.911 4.67413C481.732 4.67413 480.789 3.80189 480.789 2.71158Z" fill="#5FAEC5"/>
<path d="M490.807 2.71158C490.807 1.62127 491.75 0.749023 492.928 0.749023C494.107 0.749023 495.05 1.62127 495.05 2.71158C495.05 3.80189 494.107 4.67413 492.928 4.67413C491.75 4.67413 490.807 3.80189 490.807 2.71158Z" fill="#5FAEC5"/>
<path d="M255.07 12.528C255.07 11.4377 256.013 10.5654 257.192 10.5654C258.371 10.5654 259.314 11.4377 259.314 12.528C259.314 13.6183 258.371 14.4905 257.192 14.4905C256.013 14.4905 255.07 13.6183 255.07 12.528Z" fill="#5FAEC5"/>
<path d="M265.089 12.528C265.089 11.4377 266.032 10.5654 267.211 10.5654C268.389 10.5654 269.332 11.4377 269.332 12.528C269.332 13.6183 268.389 14.4905 267.211 14.4905C266.032 14.4905 265.089 13.6183 265.089 12.528Z" fill="#5FAEC5"/>
<path d="M275.107 12.528C275.107 11.4377 276.05 10.5654 277.229 10.5654C278.408 10.5654 279.351 11.4377 279.351 12.528C279.351 13.6183 278.408 14.4905 277.229 14.4905C276.05 14.4905 275.107 13.6183 275.107 12.528Z" fill="#5FAEC5"/>
<path d="M285.125 12.528C285.125 11.4377 286.068 10.5654 287.247 10.5654C288.425 10.5654 289.368 11.4377 289.368 12.528C289.368 13.6183 288.425 14.4905 287.247 14.4905C286.186 14.4905 285.125 13.6183 285.125 12.528Z" fill="#5FAEC5"/>
<path d="M295.259 12.528C295.259 11.4377 296.202 10.5654 297.38 10.5654C298.559 10.5654 299.502 11.4377 299.502 12.528C299.502 13.6183 298.559 14.4905 297.38 14.4905C296.202 14.4905 295.259 13.6183 295.259 12.528Z" fill="#5FAEC5"/>
<path d="M305.279 12.528C305.279 11.4377 306.222 10.5654 307.401 10.5654C308.58 10.5654 309.523 11.4377 309.523 12.528C309.523 13.6183 308.58 14.4905 307.401 14.4905C306.222 14.4905 305.279 13.6183 305.279 12.528Z" fill="#5FAEC5"/>
<path d="M315.301 12.528C315.301 11.4377 316.244 10.5654 317.422 10.5654C318.601 10.5654 319.544 11.4377 319.544 12.528C319.544 13.6183 318.601 14.4905 317.422 14.4905C316.244 14.4905 315.301 13.6183 315.301 12.528Z" fill="#5FAEC5"/>
<path d="M325.322 12.528C325.322 11.4377 326.265 10.5654 327.444 10.5654C328.623 10.5654 329.566 11.4377 329.566 12.528C329.566 13.6183 328.623 14.4905 327.444 14.4905C326.265 14.4905 325.322 13.6183 325.322 12.528Z" fill="#5FAEC5"/>
<path d="M335.34 12.528C335.34 11.4377 336.283 10.5654 337.461 10.5654C338.64 10.5654 339.583 11.4377 339.583 12.528C339.583 13.6183 338.64 14.4905 337.461 14.4905C336.283 14.4905 335.34 13.6183 335.34 12.528Z" fill="#5FAEC5"/>
<path d="M345.359 12.528C345.359 11.4377 346.302 10.5654 347.481 10.5654C348.66 10.5654 349.603 11.4377 349.603 12.528C349.603 13.6183 348.66 14.4905 347.481 14.4905C346.302 14.4905 345.359 13.6183 345.359 12.528Z" fill="#5FAEC5"/>
<path d="M355.379 12.528C355.379 11.4377 356.322 10.5654 357.501 10.5654C358.679 10.5654 359.622 11.4377 359.622 12.528C359.622 13.6183 358.679 14.4905 357.501 14.4905C356.322 14.4905 355.379 13.6183 355.379 12.528Z" fill="#5FAEC5"/>
<path d="M365.396 12.528C365.396 11.4377 366.339 10.5654 367.518 10.5654C368.697 10.5654 369.64 11.4377 369.64 12.528C369.64 13.6183 368.697 14.4905 367.518 14.4905C366.457 14.4905 365.396 13.6183 365.396 12.528Z" fill="#5FAEC5"/>
<path d="M375.529 12.528C375.529 11.4377 376.472 10.5654 377.651 10.5654C378.83 10.5654 379.773 11.4377 379.773 12.528C379.773 13.6183 378.83 14.4905 377.651 14.4905C376.472 14.4905 375.529 13.6183 375.529 12.528Z" fill="#5FAEC5"/>
<path d="M385.547 12.528C385.547 11.4377 386.49 10.5654 387.669 10.5654C388.847 10.5654 389.79 11.4377 389.79 12.528C389.79 13.6183 388.847 14.4905 387.669 14.4905C386.49 14.4905 385.547 13.6183 385.547 12.528Z" fill="#5FAEC5"/>
<path d="M395.566 12.528C395.566 11.4377 396.509 10.5654 397.688 10.5654C398.867 10.5654 399.81 11.4377 399.81 12.528C399.81 13.6183 398.867 14.4905 397.688 14.4905C396.509 14.4905 395.566 13.6183 395.566 12.528Z" fill="#5FAEC5"/>
<path d="M405.586 12.528C405.586 11.4377 406.529 10.5654 407.708 10.5654C408.886 10.5654 409.829 11.4377 409.829 12.528C409.829 13.6183 408.886 14.4905 407.708 14.4905C406.529 14.4905 405.586 13.6183 405.586 12.528Z" fill="#5FAEC5"/>
<path d="M415.605 12.528C415.605 11.4377 416.548 10.5654 417.727 10.5654C418.906 10.5654 419.849 11.4377 419.849 12.528C419.849 13.6183 418.906 14.4905 417.727 14.4905C416.548 14.4905 415.605 13.6183 415.605 12.528Z" fill="#5FAEC5"/>
<path d="M425.625 12.528C425.625 11.4377 426.568 10.5654 427.747 10.5654C428.925 10.5654 429.868 11.4377 429.868 12.528C429.868 13.6183 428.925 14.4905 427.747 14.4905C426.568 14.4905 425.625 13.6183 425.625 12.528Z" fill="#5FAEC5"/>
<path d="M435.645 12.528C435.645 11.4377 436.587 10.5654 437.766 10.5654C438.945 10.5654 439.888 11.4377 439.888 12.528C439.888 13.6183 438.945 14.4905 437.766 14.4905C436.587 14.4905 435.645 13.6183 435.645 12.528Z" fill="#5FAEC5"/>
<path d="M445.664 12.528C445.664 11.4377 446.607 10.5654 447.786 10.5654C448.964 10.5654 449.907 11.4377 449.907 12.528C449.907 13.6183 448.964 14.4905 447.786 14.4905C446.725 14.4905 445.664 13.6183 445.664 12.528Z" fill="#5FAEC5"/>
<path d="M455.799 12.528C455.799 11.4377 456.742 10.5654 457.92 10.5654C459.099 10.5654 460.042 11.4377 460.042 12.528C460.042 13.6183 459.099 14.4905 457.92 14.4905C456.742 14.4905 455.799 13.6183 455.799 12.528Z" fill="#5FAEC5"/>
<path d="M465.817 12.528C465.817 11.4377 466.76 10.5654 467.939 10.5654C469.118 10.5654 470.061 11.4377 470.061 12.528C470.061 13.6183 469.118 14.4905 467.939 14.4905C466.76 14.4905 465.817 13.6183 465.817 12.528Z" fill="#5FAEC5"/>
<path d="M475.838 12.528C475.838 11.4377 476.781 10.5654 477.96 10.5654C479.138 10.5654 480.081 11.4377 480.081 12.528C480.081 13.6183 479.138 14.4905 477.96 14.4905C476.781 14.4905 475.838 13.6183 475.838 12.528Z" fill="#5FAEC5"/>
<path d="M485.855 12.528C485.855 11.4377 486.798 10.5654 487.977 10.5654C489.156 10.5654 490.099 11.4377 490.099 12.528C490.099 13.6183 489.156 14.4905 487.977 14.4905C486.798 14.4905 485.855 13.6183 485.855 12.528Z" fill="#5FAEC5"/>
<path d="M495.875 12.528C495.875 11.4377 496.818 10.5654 497.997 10.5654C499.175 10.5654 500.118 11.4377 500.118 12.528C500.118 13.6183 499.175 14.4905 497.997 14.4905C496.818 14.4905 495.875 13.6183 495.875 12.528Z" fill="#5FAEC5"/>
<path d="M250 22.3365C250 21.2463 250.943 20.374 252.122 20.374C253.3 20.374 254.243 21.2463 254.243 22.3365C254.243 23.4268 253.3 24.2991 252.122 24.2991C250.943 24.2991 250 23.4268 250 22.3365Z" fill="#5FAEC5"/>
<path d="M260.019 22.3365C260.019 21.2463 260.962 20.374 262.14 20.374C263.319 20.374 264.262 21.2463 264.262 22.3365C264.262 23.4268 263.319 24.2991 262.14 24.2991C260.962 24.2991 260.019 23.4268 260.019 22.3365Z" fill="#5FAEC5"/>
<path d="M270.037 22.3365C270.037 21.2463 270.98 20.374 272.159 20.374C273.337 20.374 274.28 21.2463 274.28 22.3365C274.28 23.4268 273.337 24.2991 272.159 24.2991C270.98 24.2991 270.037 23.4268 270.037 22.3365Z" fill="#5FAEC5"/>
<path d="M280.056 22.3365C280.056 21.2463 280.999 20.374 282.177 20.374C283.356 20.374 284.299 21.2463 284.299 22.3365C284.299 23.4268 283.356 24.2991 282.177 24.2991C280.999 24.2991 280.056 23.4268 280.056 22.3365Z" fill="#5FAEC5"/>
<path d="M290.074 22.3365C290.074 21.2463 291.017 20.374 292.196 20.374C293.375 20.374 294.318 21.2463 294.318 22.3365C294.318 23.4268 293.375 24.2991 292.196 24.2991C291.135 24.2991 290.074 23.4268 290.074 22.3365Z" fill="#5FAEC5"/>
<path d="M300.215 22.3365C300.215 21.2463 301.158 20.374 302.336 20.374C303.515 20.374 304.458 21.2463 304.458 22.3365C304.458 23.4268 303.515 24.2991 302.336 24.2991C301.158 24.2991 300.215 23.4268 300.215 22.3365Z" fill="#5FAEC5"/>
<path d="M310.234 22.3365C310.234 21.2463 311.177 20.374 312.356 20.374C313.535 20.374 314.478 21.2463 314.478 22.3365C314.478 23.4268 313.535 24.2991 312.356 24.2991C311.177 24.2991 310.234 23.4268 310.234 22.3365Z" fill="#5FAEC5"/>
<path d="M320.252 22.3365C320.252 21.2463 321.195 20.374 322.374 20.374C323.552 20.374 324.495 21.2463 324.495 22.3365C324.495 23.4268 323.552 24.2991 322.374 24.2991C321.195 24.2991 320.252 23.4268 320.252 22.3365Z" fill="#5FAEC5"/>
<path d="M330.271 22.3365C330.271 21.2463 331.214 20.374 332.393 20.374C333.572 20.374 334.515 21.2463 334.515 22.3365C334.515 23.4268 333.572 24.2991 332.393 24.2991C331.214 24.2991 330.271 23.4268 330.271 22.3365Z" fill="#5FAEC5"/>
<path d="M340.289 22.3365C340.289 21.2463 341.232 20.374 342.411 20.374C343.589 20.374 344.532 21.2463 344.532 22.3365C344.532 23.4268 343.589 24.2991 342.411 24.2991C341.232 24.2991 340.289 23.4268 340.289 22.3365Z" fill="#5FAEC5"/>
<path d="M350.309 22.3365C350.309 21.2463 351.252 20.374 352.43 20.374C353.609 20.374 354.552 21.2463 354.552 22.3365C354.552 23.4268 353.609 24.2991 352.43 24.2991C351.252 24.2991 350.309 23.4268 350.309 22.3365Z" fill="#5FAEC5"/>
<path d="M360.326 22.3365C360.326 21.2463 361.269 20.374 362.448 20.374C363.627 20.374 364.569 21.2463 364.569 22.3365C364.569 23.4268 363.627 24.2991 362.448 24.2991C361.269 24.2991 360.326 23.4268 360.326 22.3365Z" fill="#5FAEC5"/>
<path d="M370.345 22.3365C370.345 21.2463 371.288 20.374 372.466 20.374C373.645 20.374 374.588 21.2463 374.588 22.3365C374.588 23.4268 373.645 24.2991 372.466 24.2991C371.406 24.2991 370.345 23.4268 370.345 22.3365Z" fill="#5FAEC5"/>
<path d="M380.481 22.3365C380.481 21.2463 381.424 20.374 382.603 20.374C383.782 20.374 384.725 21.2463 384.725 22.3365C384.725 23.4268 383.782 24.2991 382.603 24.2991C381.424 24.2991 380.481 23.4268 380.481 22.3365Z" fill="#5FAEC5"/>
<path d="M390.504 22.3365C390.504 21.2463 391.447 20.374 392.626 20.374C393.804 20.374 394.747 21.2463 394.747 22.3365C394.747 23.4268 393.804 24.2991 392.626 24.2991C391.447 24.2991 390.504 23.4268 390.504 22.3365Z" fill="#5FAEC5"/>
<path d="M400.523 22.3365C400.523 21.2463 401.466 20.374 402.645 20.374C403.824 20.374 404.767 21.2463 404.767 22.3365C404.767 23.4268 403.824 24.2991 402.645 24.2991C401.466 24.2991 400.523 23.4268 400.523 22.3365Z" fill="#5FAEC5"/>
<path d="M410.541 22.3365C410.541 21.2463 411.484 20.374 412.663 20.374C413.841 20.374 414.784 21.2463 414.784 22.3365C414.784 23.4268 413.841 24.2991 412.663 24.2991C411.484 24.2991 410.541 23.4268 410.541 22.3365Z" fill="#5FAEC5"/>
<path d="M420.56 22.3365C420.56 21.2463 421.503 20.374 422.681 20.374C423.86 20.374 424.803 21.2463 424.803 22.3365C424.803 23.4268 423.86 24.2991 422.681 24.2991C421.503 24.2991 420.56 23.4268 420.56 22.3365Z" fill="#5FAEC5"/>
<path d="M430.578 22.3365C430.578 21.2463 431.521 20.374 432.7 20.374C433.879 20.374 434.821 21.2463 434.821 22.3365C434.821 23.4268 433.879 24.2991 432.7 24.2991C431.521 24.2991 430.578 23.4268 430.578 22.3365Z" fill="#5FAEC5"/>
<path d="M440.598 22.3365C440.598 21.2463 441.541 20.374 442.719 20.374C443.898 20.374 444.841 21.2463 444.841 22.3365C444.841 23.4268 443.898 24.2991 442.719 24.2991C441.541 24.2991 440.598 23.4268 440.598 22.3365Z" fill="#5FAEC5"/>
<path d="M450.616 22.3365C450.616 21.2463 451.559 20.374 452.738 20.374C453.917 20.374 454.86 21.2463 454.86 22.3365C454.86 23.4268 453.917 24.2991 452.738 24.2991C451.677 24.2991 450.616 23.4268 450.616 22.3365Z" fill="#5FAEC5"/>
<path d="M460.75 22.3365C460.75 21.2463 461.693 20.374 462.872 20.374C464.05 20.374 464.993 21.2463 464.993 22.3365C464.993 23.4268 464.05 24.2991 462.872 24.2991C461.693 24.2991 460.75 23.4268 460.75 22.3365Z" fill="#5FAEC5"/>
<path d="M470.769 22.3365C470.769 21.2463 471.712 20.374 472.89 20.374C474.069 20.374 475.012 21.2463 475.012 22.3365C475.012 23.4268 474.069 24.2991 472.89 24.2991C471.712 24.2991 470.769 23.4268 470.769 22.3365Z" fill="#5FAEC5"/>
<path d="M480.789 22.3365C480.789 21.2463 481.732 20.374 482.911 20.374C484.089 20.374 485.032 21.2463 485.032 22.3365C485.032 23.4268 484.089 24.2991 482.911 24.2991C481.732 24.2991 480.789 23.4268 480.789 22.3365Z" fill="#5FAEC5"/>
<path d="M490.807 22.3365C490.807 21.2463 491.75 20.374 492.928 20.374C494.107 20.374 495.05 21.2463 495.05 22.3365C495.05 23.4268 494.107 24.2991 492.928 24.2991C491.75 24.2991 490.807 23.4268 490.807 22.3365Z" fill="#5FAEC5"/>
<path d="M501 2.71158C501 1.62127 501.943 0.749023 503.122 0.749023C504.3 0.749023 505.243 1.62127 505.243 2.71158C505.243 3.80189 504.3 4.67413 503.122 4.67413C501.943 4.67413 501 3.80189 501 2.71158Z" fill="#5FAEC5"/>
<path d="M511.019 2.71158C511.019 1.62127 511.962 0.749023 513.14 0.749023C514.319 0.749023 515.262 1.62127 515.262 2.71158C515.262 3.80189 514.319 4.67413 513.14 4.67413C511.962 4.67413 511.019 3.80189 511.019 2.71158Z" fill="#5FAEC5"/>
<path d="M521.037 2.71158C521.037 1.62127 521.98 0.749023 523.159 0.749023C524.337 0.749023 525.28 1.62127 525.28 2.71158C525.28 3.80189 524.337 4.67413 523.159 4.67413C521.98 4.67413 521.037 3.80189 521.037 2.71158Z" fill="#5FAEC5"/>
<path d="M531.056 2.71158C531.056 1.62127 531.999 0.749023 533.177 0.749023C534.356 0.749023 535.299 1.62127 535.299 2.71158C535.299 3.80189 534.356 4.67413 533.177 4.67413C531.999 4.67413 531.056 3.80189 531.056 2.71158Z" fill="#5FAEC5"/>
<path d="M541.074 2.71158C541.074 1.62127 542.017 0.749023 543.196 0.749023C544.375 0.749023 545.318 1.62127 545.318 2.71158C545.318 3.80189 544.375 4.67413 543.196 4.67413C542.135 4.67413 541.074 3.80189 541.074 2.71158Z" fill="#5FAEC5"/>
<path d="M551.215 2.71158C551.215 1.62127 552.158 0.749023 553.336 0.749023C554.515 0.749023 555.458 1.62127 555.458 2.71158C555.458 3.80189 554.515 4.67413 553.336 4.67413C552.158 4.67413 551.215 3.80189 551.215 2.71158Z" fill="#5FAEC5"/>
<path d="M561.233 2.71158C561.233 1.62127 562.176 0.749023 563.355 0.749023C564.534 0.749023 565.477 1.62127 565.477 2.71158C565.477 3.80189 564.534 4.67413 563.355 4.67413C562.176 4.67413 561.233 3.80189 561.233 2.71158Z" fill="#5FAEC5"/>
<path d="M571.252 2.71158C571.252 1.62127 572.195 0.749023 573.374 0.749023C574.552 0.749023 575.495 1.62127 575.495 2.71158C575.495 3.80189 574.552 4.67413 573.374 4.67413C572.195 4.67413 571.252 3.80189 571.252 2.71158Z" fill="#5FAEC5"/>
<path d="M581.271 2.71158C581.271 1.62127 582.213 0.749023 583.392 0.749023C584.571 0.749023 585.514 1.62127 585.514 2.71158C585.514 3.80189 584.571 4.67413 583.392 4.67413C582.213 4.67413 581.271 3.80189 581.271 2.71158Z" fill="#5FAEC5"/>
<path d="M591.289 2.71158C591.289 1.62127 592.232 0.749023 593.411 0.749023C594.589 0.749023 595.532 1.62127 595.532 2.71158C595.532 3.80189 594.589 4.67413 593.411 4.67413C592.232 4.67413 591.289 3.80189 591.289 2.71158Z" fill="#5FAEC5"/>
<path d="M601.309 2.71158C601.309 1.62127 602.252 0.749023 603.43 0.749023C604.609 0.749023 605.552 1.62127 605.552 2.71158C605.552 3.80189 604.609 4.67413 603.43 4.67413C602.252 4.67413 601.309 3.80189 601.309 2.71158Z" fill="#5FAEC5"/>
<path d="M611.326 2.71158C611.326 1.62127 612.269 0.749023 613.448 0.749023C614.627 0.749023 615.569 1.62127 615.569 2.71158C615.569 3.80189 614.627 4.67413 613.448 4.67413C612.269 4.67413 611.326 3.80189 611.326 2.71158Z" fill="#5FAEC5"/>
<path d="M621.345 2.71158C621.345 1.62127 622.288 0.749023 623.466 0.749023C624.645 0.749023 625.588 1.62127 625.588 2.71158C625.588 3.80189 624.645 4.67413 623.466 4.67413C622.406 4.67413 621.345 3.80189 621.345 2.71158Z" fill="#5FAEC5"/>
<path d="M631.482 2.71158C631.482 1.62127 632.425 0.749023 633.604 0.749023C634.783 0.749023 635.726 1.62127 635.726 2.71158C635.726 3.80189 634.783 4.67413 633.604 4.67413C632.425 4.67413 631.482 3.80189 631.482 2.71158Z" fill="#5FAEC5"/>
<path d="M641.504 2.71158C641.504 1.62127 642.447 0.749023 643.626 0.749023C644.804 0.749023 645.747 1.62127 645.747 2.71158C645.747 3.80189 644.804 4.67413 643.626 4.67413C642.447 4.67413 641.504 3.80189 641.504 2.71158Z" fill="#5FAEC5"/>
<path d="M651.522 2.71158C651.522 1.62127 652.465 0.749023 653.644 0.749023C654.823 0.749023 655.766 1.62127 655.766 2.71158C655.766 3.80189 654.823 4.67413 653.644 4.67413C652.465 4.67413 651.522 3.80189 651.522 2.71158Z" fill="#5FAEC5"/>
<path d="M661.54 2.71158C661.54 1.62127 662.483 0.749023 663.662 0.749023C664.84 0.749023 665.783 1.62127 665.783 2.71158C665.783 3.80189 664.84 4.67413 663.662 4.67413C662.483 4.67413 661.54 3.80189 661.54 2.71158Z" fill="#5FAEC5"/>
<path d="M671.559 2.71158C671.559 1.62127 672.502 0.749023 673.68 0.749023C674.859 0.749023 675.802 1.62127 675.802 2.71158C675.802 3.80189 674.859 4.67413 673.68 4.67413C672.502 4.67413 671.559 3.80189 671.559 2.71158Z" fill="#5FAEC5"/>
<path d="M681.578 2.71158C681.578 1.62127 682.521 0.749023 683.7 0.749023C684.878 0.749023 685.821 1.62127 685.821 2.71158C685.821 3.80189 684.878 4.67413 683.7 4.67413C682.521 4.67413 681.578 3.80189 681.578 2.71158Z" fill="#5FAEC5"/>
<path d="M691.597 2.71158C691.597 1.62127 692.54 0.749023 693.718 0.749023C694.897 0.749023 695.84 1.62127 695.84 2.71158C695.84 3.80189 694.897 4.67413 693.718 4.67413C692.54 4.67413 691.597 3.80189 691.597 2.71158Z" fill="#5FAEC5"/>
<path d="M701.615 2.71158C701.615 1.62127 702.558 0.749023 703.737 0.749023C704.916 0.749023 705.859 1.62127 705.859 2.71158C705.859 3.80189 704.916 4.67413 703.737 4.67413C702.676 4.67413 701.615 3.80189 701.615 2.71158Z" fill="#5FAEC5"/>
<path d="M711.75 2.71158C711.75 1.62127 712.693 0.749023 713.872 0.749023C715.05 0.749023 715.993 1.62127 715.993 2.71158C715.993 3.80189 715.05 4.67413 713.872 4.67413C712.693 4.67413 711.75 3.80189 711.75 2.71158Z" fill="#5FAEC5"/>
<path d="M721.769 2.71158C721.769 1.62127 722.712 0.749023 723.89 0.749023C725.069 0.749023 726.012 1.62127 726.012 2.71158C726.012 3.80189 725.069 4.67413 723.89 4.67413C722.712 4.67413 721.769 3.80189 721.769 2.71158Z" fill="#5FAEC5"/>
<path d="M731.789 2.71158C731.789 1.62127 732.732 0.749023 733.911 0.749023C735.089 0.749023 736.032 1.62127 736.032 2.71158C736.032 3.80189 735.089 4.67413 733.911 4.67413C732.732 4.67413 731.789 3.80189 731.789 2.71158Z" fill="#5FAEC5"/>
<path d="M741.807 2.71158C741.807 1.62127 742.75 0.749023 743.928 0.749023C745.107 0.749023 746.05 1.62127 746.05 2.71158C746.05 3.80189 745.107 4.67413 743.928 4.67413C742.75 4.67413 741.807 3.80189 741.807 2.71158Z" fill="#5FAEC5"/>
<path d="M506.07 12.528C506.07 11.4377 507.013 10.5654 508.192 10.5654C509.371 10.5654 510.314 11.4377 510.314 12.528C510.314 13.6183 509.371 14.4905 508.192 14.4905C507.013 14.4905 506.07 13.6183 506.07 12.528Z" fill="#5FAEC5"/>
<path d="M516.089 12.528C516.089 11.4377 517.032 10.5654 518.211 10.5654C519.389 10.5654 520.332 11.4377 520.332 12.528C520.332 13.6183 519.389 14.4905 518.211 14.4905C517.032 14.4905 516.089 13.6183 516.089 12.528Z" fill="#5FAEC5"/>
<path d="M526.107 12.528C526.107 11.4377 527.05 10.5654 528.229 10.5654C529.408 10.5654 530.351 11.4377 530.351 12.528C530.351 13.6183 529.408 14.4905 528.229 14.4905C527.05 14.4905 526.107 13.6183 526.107 12.528Z" fill="#5FAEC5"/>
<path d="M536.125 12.528C536.125 11.4377 537.068 10.5654 538.247 10.5654C539.425 10.5654 540.368 11.4377 540.368 12.528C540.368 13.6183 539.425 14.4905 538.247 14.4905C537.186 14.4905 536.125 13.6183 536.125 12.528Z" fill="#5FAEC5"/>
<path d="M546.259 12.528C546.259 11.4377 547.202 10.5654 548.38 10.5654C549.559 10.5654 550.502 11.4377 550.502 12.528C550.502 13.6183 549.559 14.4905 548.38 14.4905C547.202 14.4905 546.259 13.6183 546.259 12.528Z" fill="#5FAEC5"/>
<path d="M556.279 12.528C556.279 11.4377 557.222 10.5654 558.401 10.5654C559.58 10.5654 560.523 11.4377 560.523 12.528C560.523 13.6183 559.58 14.4905 558.401 14.4905C557.222 14.4905 556.279 13.6183 556.279 12.528Z" fill="#5FAEC5"/>
<path d="M566.301 12.528C566.301 11.4377 567.244 10.5654 568.422 10.5654C569.601 10.5654 570.544 11.4377 570.544 12.528C570.544 13.6183 569.601 14.4905 568.422 14.4905C567.244 14.4905 566.301 13.6183 566.301 12.528Z" fill="#5FAEC5"/>
<path d="M576.322 12.528C576.322 11.4377 577.265 10.5654 578.444 10.5654C579.623 10.5654 580.566 11.4377 580.566 12.528C580.566 13.6183 579.623 14.4905 578.444 14.4905C577.265 14.4905 576.322 13.6183 576.322 12.528Z" fill="#5FAEC5"/>
<path d="M586.34 12.528C586.34 11.4377 587.283 10.5654 588.461 10.5654C589.64 10.5654 590.583 11.4377 590.583 12.528C590.583 13.6183 589.64 14.4905 588.461 14.4905C587.283 14.4905 586.34 13.6183 586.34 12.528Z" fill="#5FAEC5"/>
<path d="M596.359 12.528C596.359 11.4377 597.302 10.5654 598.481 10.5654C599.66 10.5654 600.603 11.4377 600.603 12.528C600.603 13.6183 599.66 14.4905 598.481 14.4905C597.302 14.4905 596.359 13.6183 596.359 12.528Z" fill="#5FAEC5"/>
<path d="M606.379 12.528C606.379 11.4377 607.322 10.5654 608.501 10.5654C609.679 10.5654 610.622 11.4377 610.622 12.528C610.622 13.6183 609.679 14.4905 608.501 14.4905C607.322 14.4905 606.379 13.6183 606.379 12.528Z" fill="#5FAEC5"/>
<path d="M616.396 12.528C616.396 11.4377 617.339 10.5654 618.518 10.5654C619.697 10.5654 620.64 11.4377 620.64 12.528C620.64 13.6183 619.697 14.4905 618.518 14.4905C617.457 14.4905 616.396 13.6183 616.396 12.528Z" fill="#5FAEC5"/>
<path d="M626.529 12.528C626.529 11.4377 627.472 10.5654 628.651 10.5654C629.83 10.5654 630.773 11.4377 630.773 12.528C630.773 13.6183 629.83 14.4905 628.651 14.4905C627.472 14.4905 626.529 13.6183 626.529 12.528Z" fill="#5FAEC5"/>
<path d="M636.547 12.528C636.547 11.4377 637.49 10.5654 638.669 10.5654C639.847 10.5654 640.79 11.4377 640.79 12.528C640.79 13.6183 639.847 14.4905 638.669 14.4905C637.49 14.4905 636.547 13.6183 636.547 12.528Z" fill="#5FAEC5"/>
<path d="M646.566 12.528C646.566 11.4377 647.509 10.5654 648.688 10.5654C649.867 10.5654 650.81 11.4377 650.81 12.528C650.81 13.6183 649.867 14.4905 648.688 14.4905C647.509 14.4905 646.566 13.6183 646.566 12.528Z" fill="#5FAEC5"/>
<path d="M656.586 12.528C656.586 11.4377 657.529 10.5654 658.708 10.5654C659.886 10.5654 660.829 11.4377 660.829 12.528C660.829 13.6183 659.886 14.4905 658.708 14.4905C657.529 14.4905 656.586 13.6183 656.586 12.528Z" fill="#5FAEC5"/>
<path d="M666.605 12.528C666.605 11.4377 667.548 10.5654 668.727 10.5654C669.906 10.5654 670.849 11.4377 670.849 12.528C670.849 13.6183 669.906 14.4905 668.727 14.4905C667.548 14.4905 666.605 13.6183 666.605 12.528Z" fill="#5FAEC5"/>
<path d="M676.625 12.528C676.625 11.4377 677.568 10.5654 678.747 10.5654C679.925 10.5654 680.868 11.4377 680.868 12.528C680.868 13.6183 679.925 14.4905 678.747 14.4905C677.568 14.4905 676.625 13.6183 676.625 12.528Z" fill="#5FAEC5"/>
<path d="M686.645 12.528C686.645 11.4377 687.587 10.5654 688.766 10.5654C689.945 10.5654 690.888 11.4377 690.888 12.528C690.888 13.6183 689.945 14.4905 688.766 14.4905C687.587 14.4905 686.645 13.6183 686.645 12.528Z" fill="#5FAEC5"/>
<path d="M696.664 12.528C696.664 11.4377 697.607 10.5654 698.786 10.5654C699.964 10.5654 700.907 11.4377 700.907 12.528C700.907 13.6183 699.964 14.4905 698.786 14.4905C697.725 14.4905 696.664 13.6183 696.664 12.528Z" fill="#5FAEC5"/>
<path d="M706.799 12.528C706.799 11.4377 707.742 10.5654 708.92 10.5654C710.099 10.5654 711.042 11.4377 711.042 12.528C711.042 13.6183 710.099 14.4905 708.92 14.4905C707.742 14.4905 706.799 13.6183 706.799 12.528Z" fill="#5FAEC5"/>
<path d="M716.817 12.528C716.817 11.4377 717.76 10.5654 718.939 10.5654C720.118 10.5654 721.061 11.4377 721.061 12.528C721.061 13.6183 720.118 14.4905 718.939 14.4905C717.76 14.4905 716.817 13.6183 716.817 12.528Z" fill="#5FAEC5"/>
<path d="M726.838 12.528C726.838 11.4377 727.781 10.5654 728.96 10.5654C730.138 10.5654 731.081 11.4377 731.081 12.528C731.081 13.6183 730.138 14.4905 728.96 14.4905C727.781 14.4905 726.838 13.6183 726.838 12.528Z" fill="#5FAEC5"/>
<path d="M736.855 12.528C736.855 11.4377 737.798 10.5654 738.977 10.5654C740.156 10.5654 741.099 11.4377 741.099 12.528C741.099 13.6183 740.156 14.4905 738.977 14.4905C737.798 14.4905 736.855 13.6183 736.855 12.528Z" fill="#5FAEC5"/>
<path d="M746.875 12.528C746.875 11.4377 747.818 10.5654 748.997 10.5654C750.175 10.5654 751.118 11.4377 751.118 12.528C751.118 13.6183 750.175 14.4905 748.997 14.4905C747.818 14.4905 746.875 13.6183 746.875 12.528Z" fill="#5FAEC5"/>
<path d="M501 22.3365C501 21.2463 501.943 20.374 503.122 20.374C504.3 20.374 505.243 21.2463 505.243 22.3365C505.243 23.4268 504.3 24.2991 503.122 24.2991C501.943 24.2991 501 23.4268 501 22.3365Z" fill="#5FAEC5"/>
<path d="M511.019 22.3365C511.019 21.2463 511.962 20.374 513.14 20.374C514.319 20.374 515.262 21.2463 515.262 22.3365C515.262 23.4268 514.319 24.2991 513.14 24.2991C511.962 24.2991 511.019 23.4268 511.019 22.3365Z" fill="#5FAEC5"/>
<path d="M521.037 22.3365C521.037 21.2463 521.98 20.374 523.159 20.374C524.337 20.374 525.28 21.2463 525.28 22.3365C525.28 23.4268 524.337 24.2991 523.159 24.2991C521.98 24.2991 521.037 23.4268 521.037 22.3365Z" fill="#5FAEC5"/>
<path d="M531.056 22.3365C531.056 21.2463 531.999 20.374 533.177 20.374C534.356 20.374 535.299 21.2463 535.299 22.3365C535.299 23.4268 534.356 24.2991 533.177 24.2991C531.999 24.2991 531.056 23.4268 531.056 22.3365Z" fill="#5FAEC5"/>
<path d="M541.074 22.3365C541.074 21.2463 542.017 20.374 543.196 20.374C544.375 20.374 545.318 21.2463 545.318 22.3365C545.318 23.4268 544.375 24.2991 543.196 24.2991C542.135 24.2991 541.074 23.4268 541.074 22.3365Z" fill="#5FAEC5"/>
<path d="M551.215 22.3365C551.215 21.2463 552.158 20.374 553.336 20.374C554.515 20.374 555.458 21.2463 555.458 22.3365C555.458 23.4268 554.515 24.2991 553.336 24.2991C552.158 24.2991 551.215 23.4268 551.215 22.3365Z" fill="#5FAEC5"/>
<path d="M561.234 22.3365C561.234 21.2463 562.177 20.374 563.356 20.374C564.535 20.374 565.478 21.2463 565.478 22.3365C565.478 23.4268 564.535 24.2991 563.356 24.2991C562.177 24.2991 561.234 23.4268 561.234 22.3365Z" fill="#5FAEC5"/>
<path d="M571.252 22.3365C571.252 21.2463 572.195 20.374 573.374 20.374C574.552 20.374 575.495 21.2463 575.495 22.3365C575.495 23.4268 574.552 24.2991 573.374 24.2991C572.195 24.2991 571.252 23.4268 571.252 22.3365Z" fill="#5FAEC5"/>
<path d="M581.271 22.3365C581.271 21.2463 582.214 20.374 583.393 20.374C584.572 20.374 585.515 21.2463 585.515 22.3365C585.515 23.4268 584.572 24.2991 583.393 24.2991C582.214 24.2991 581.271 23.4268 581.271 22.3365Z" fill="#5FAEC5"/>
<path d="M591.289 22.3365C591.289 21.2463 592.232 20.374 593.411 20.374C594.589 20.374 595.532 21.2463 595.532 22.3365C595.532 23.4268 594.589 24.2991 593.411 24.2991C592.232 24.2991 591.289 23.4268 591.289 22.3365Z" fill="#5FAEC5"/>
<path d="M601.309 22.3365C601.309 21.2463 602.252 20.374 603.43 20.374C604.609 20.374 605.552 21.2463 605.552 22.3365C605.552 23.4268 604.609 24.2991 603.43 24.2991C602.252 24.2991 601.309 23.4268 601.309 22.3365Z" fill="#5FAEC5"/>
<path d="M611.326 22.3365C611.326 21.2463 612.269 20.374 613.448 20.374C614.627 20.374 615.569 21.2463 615.569 22.3365C615.569 23.4268 614.627 24.2991 613.448 24.2991C612.269 24.2991 611.326 23.4268 611.326 22.3365Z" fill="#5FAEC5"/>
<path d="M621.345 22.3365C621.345 21.2463 622.288 20.374 623.466 20.374C624.645 20.374 625.588 21.2463 625.588 22.3365C625.588 23.4268 624.645 24.2991 623.466 24.2991C622.406 24.2991 621.345 23.4268 621.345 22.3365Z" fill="#5FAEC5"/>
<path d="M631.481 22.3365C631.481 21.2463 632.424 20.374 633.603 20.374C634.782 20.374 635.725 21.2463 635.725 22.3365C635.725 23.4268 634.782 24.2991 633.603 24.2991C632.424 24.2991 631.481 23.4268 631.481 22.3365Z" fill="#5FAEC5"/>
<path d="M641.504 22.3365C641.504 21.2463 642.447 20.374 643.626 20.374C644.804 20.374 645.747 21.2463 645.747 22.3365C645.747 23.4268 644.804 24.2991 643.626 24.2991C642.447 24.2991 641.504 23.4268 641.504 22.3365Z" fill="#5FAEC5"/>
<path d="M651.523 22.3365C651.523 21.2463 652.466 20.374 653.645 20.374C654.824 20.374 655.767 21.2463 655.767 22.3365C655.767 23.4268 654.824 24.2991 653.645 24.2991C652.466 24.2991 651.523 23.4268 651.523 22.3365Z" fill="#5FAEC5"/>
<path d="M661.541 22.3365C661.541 21.2463 662.484 20.374 663.663 20.374C664.841 20.374 665.784 21.2463 665.784 22.3365C665.784 23.4268 664.841 24.2991 663.663 24.2991C662.484 24.2991 661.541 23.4268 661.541 22.3365Z" fill="#5FAEC5"/>
<path d="M671.56 22.3365C671.56 21.2463 672.503 20.374 673.681 20.374C674.86 20.374 675.803 21.2463 675.803 22.3365C675.803 23.4268 674.86 24.2991 673.681 24.2991C672.503 24.2991 671.56 23.4268 671.56 22.3365Z" fill="#5FAEC5"/>
<path d="M681.578 22.3365C681.578 21.2463 682.521 20.374 683.7 20.374C684.878 20.374 685.821 21.2463 685.821 22.3365C685.821 23.4268 684.878 24.2991 683.7 24.2991C682.521 24.2991 681.578 23.4268 681.578 22.3365Z" fill="#5FAEC5"/>
<path d="M691.598 22.3365C691.598 21.2463 692.541 20.374 693.719 20.374C694.898 20.374 695.841 21.2463 695.841 22.3365C695.841 23.4268 694.898 24.2991 693.719 24.2991C692.541 24.2991 691.598 23.4268 691.598 22.3365Z" fill="#5FAEC5"/>
<path d="M701.616 22.3365C701.616 21.2463 702.559 20.374 703.738 20.374C704.917 20.374 705.859 21.2463 705.859 22.3365C705.859 23.4268 704.917 24.2991 703.738 24.2991C702.677 24.2991 701.616 23.4268 701.616 22.3365Z" fill="#5FAEC5"/>
<path d="M711.75 22.3365C711.75 21.2463 712.693 20.374 713.872 20.374C715.05 20.374 715.993 21.2463 715.993 22.3365C715.993 23.4268 715.05 24.2991 713.872 24.2991C712.693 24.2991 711.75 23.4268 711.75 22.3365Z" fill="#5FAEC5"/>
<path d="M721.769 22.3365C721.769 21.2463 722.712 20.374 723.89 20.374C725.069 20.374 726.012 21.2463 726.012 22.3365C726.012 23.4268 725.069 24.2991 723.89 24.2991C722.712 24.2991 721.769 23.4268 721.769 22.3365Z" fill="#5FAEC5"/>
<path d="M731.789 22.3365C731.789 21.2463 732.732 20.374 733.911 20.374C735.089 20.374 736.032 21.2463 736.032 22.3365C736.032 23.4268 735.089 24.2991 733.911 24.2991C732.732 24.2991 731.789 23.4268 731.789 22.3365Z" fill="#5FAEC5"/>
<path d="M741.807 22.3365C741.807 21.2463 742.75 20.374 743.928 20.374C745.107 20.374 746.05 21.2463 746.05 22.3365C746.05 23.4268 745.107 24.2991 743.928 24.2991C742.75 24.2991 741.807 23.4268 741.807 22.3365Z" fill="#5FAEC5"/>
<path d="M754.615 2.71158C754.615 1.62127 755.558 0.749023 756.737 0.749023C757.916 0.749023 758.859 1.62127 758.859 2.71158C758.859 3.80189 757.916 4.67413 756.737 4.67413C755.676 4.67413 754.615 3.80189 754.615 2.71158Z" fill="#5FAEC5"/>
<path d="M764.75 2.71158C764.75 1.62127 765.693 0.749023 766.872 0.749023C768.05 0.749023 768.993 1.62127 768.993 2.71158C768.993 3.80189 768.05 4.67413 766.872 4.67413C765.693 4.67413 764.75 3.80189 764.75 2.71158Z" fill="#5FAEC5"/>
<path d="M774.769 2.71158C774.769 1.62127 775.712 0.749023 776.89 0.749023C778.069 0.749023 779.012 1.62127 779.012 2.71158C779.012 3.80189 778.069 4.67413 776.89 4.67413C775.712 4.67413 774.769 3.80189 774.769 2.71158Z" fill="#5FAEC5"/>
<path d="M784.789 2.71158C784.789 1.62127 785.732 0.749023 786.911 0.749023C788.089 0.749023 789.032 1.62127 789.032 2.71158C789.032 3.80189 788.089 4.67413 786.911 4.67413C785.732 4.67413 784.789 3.80189 784.789 2.71158Z" fill="#5FAEC5"/>
<path d="M794.807 2.71158C794.807 1.62127 795.75 0.749023 796.928 0.749023C798.107 0.749023 799.05 1.62127 799.05 2.71158C799.05 3.80189 798.107 4.67413 796.928 4.67413C795.75 4.67413 794.807 3.80189 794.807 2.71158Z" fill="#5FAEC5"/>
<path d="M759.799 12.528C759.799 11.4377 760.742 10.5654 761.92 10.5654C763.099 10.5654 764.042 11.4377 764.042 12.528C764.042 13.6183 763.099 14.4905 761.92 14.4905C760.742 14.4905 759.799 13.6183 759.799 12.528Z" fill="#5FAEC5"/>
<path d="M769.817 12.528C769.817 11.4377 770.76 10.5654 771.939 10.5654C773.118 10.5654 774.061 11.4377 774.061 12.528C774.061 13.6183 773.118 14.4905 771.939 14.4905C770.76 14.4905 769.817 13.6183 769.817 12.528Z" fill="#5FAEC5"/>
<path d="M779.838 12.528C779.838 11.4377 780.781 10.5654 781.96 10.5654C783.138 10.5654 784.081 11.4377 784.081 12.528C784.081 13.6183 783.138 14.4905 781.96 14.4905C780.781 14.4905 779.838 13.6183 779.838 12.528Z" fill="#5FAEC5"/>
<path d="M789.855 12.528C789.855 11.4377 790.798 10.5654 791.977 10.5654C793.156 10.5654 794.099 11.4377 794.099 12.528C794.099 13.6183 793.156 14.4905 791.977 14.4905C790.798 14.4905 789.855 13.6183 789.855 12.528Z" fill="#5FAEC5"/>
<path d="M799.875 12.528C799.875 11.4377 800.818 10.5654 801.997 10.5654C803.175 10.5654 804.118 11.4377 804.118 12.528C804.118 13.6183 803.175 14.4905 801.997 14.4905C800.818 14.4905 799.875 13.6183 799.875 12.528Z" fill="#5FAEC5"/>
<path d="M754.616 22.3365C754.616 21.2463 755.559 20.374 756.738 20.374C757.917 20.374 758.859 21.2463 758.859 22.3365C758.859 23.4268 757.917 24.2991 756.738 24.2991C755.677 24.2991 754.616 23.4268 754.616 22.3365Z" fill="#5FAEC5"/>
<path d="M764.75 22.3365C764.75 21.2463 765.693 20.374 766.872 20.374C768.05 20.374 768.993 21.2463 768.993 22.3365C768.993 23.4268 768.05 24.2991 766.872 24.2991C765.693 24.2991 764.75 23.4268 764.75 22.3365Z" fill="#5FAEC5"/>
<path d="M774.769 22.3365C774.769 21.2463 775.712 20.374 776.89 20.374C778.069 20.374 779.012 21.2463 779.012 22.3365C779.012 23.4268 778.069 24.2991 776.89 24.2991C775.712 24.2991 774.769 23.4268 774.769 22.3365Z" fill="#5FAEC5"/>
<path d="M784.789 22.3365C784.789 21.2463 785.732 20.374 786.911 20.374C788.089 20.374 789.032 21.2463 789.032 22.3365C789.032 23.4268 788.089 24.2991 786.911 24.2991C785.732 24.2991 784.789 23.4268 784.789 22.3365Z" fill="#5FAEC5"/>
<path d="M794.807 22.3365C794.807 21.2463 795.75 20.374 796.928 20.374C798.107 20.374 799.05 21.2463 799.05 22.3365C799.05 23.4268 798.107 24.2991 796.928 24.2991C795.75 24.2991 794.807 23.4268 794.807 22.3365Z" fill="#5FAEC5"/>
<path d="M804.807 2.71158C804.807 1.62127 805.75 0.749023 806.928 0.749023C808.107 0.749023 809.05 1.62127 809.05 2.71158C809.05 3.80189 808.107 4.67413 806.928 4.67413C805.75 4.67413 804.807 3.80189 804.807 2.71158Z" fill="#5FAEC5"/>
<path d="M809.875 12.528C809.875 11.4377 810.818 10.5654 811.997 10.5654C813.175 10.5654 814.118 11.4377 814.118 12.528C814.118 13.6183 813.175 14.4905 811.997 14.4905C810.818 14.4905 809.875 13.6183 809.875 12.528Z" fill="#5FAEC5"/>
<path d="M804.807 22.3365C804.807 21.2463 805.75 20.374 806.928 20.374C808.107 20.374 809.05 21.2463 809.05 22.3365C809.05 23.4268 808.107 24.2991 806.928 24.2991C805.75 24.2991 804.807 23.4268 804.807 22.3365Z" fill="#5FAEC5"/>
</svg>
