<svg xmlns="http://www.w3.org/2000/svg" viewBox="0 0 60 60">
    <title>Star Icon</title>
    <path d="M31.6928,39.534a.6847.6847,0,0,0,.1716-.4445.6937.6937,0,0,0-.6929-.6942.6837.6837,0,0,0-.6571.52l-.0692-.0371a.96.96,0,0,0-.8928,0l-5.2681,2.77A.6916.6916,0,1,0,22.9484,41.4a.6841.6841,0,0,0,.5444.6648l-1.8419.967L23.16,34.2339a.9606.9606,0,0,0-.2767-.85L16.49,27.152l1.86-.269a.7012.7012,0,1,0,.3791-.0551l6.5951-.9594a.956.956,0,0,0,.3945-.16.6813.6813,0,0,0,.456.1806.694.694,0,0,0,.2626-1.3359l3.562-7.215,1.2565,2.5476a.6193.6193,0,0,0-.0845-.0179.6949.6949,0,0,0,0,1.39.6834.6834,0,0,0,.5892-.351l2.19,4.4369a.9613.9613,0,0,0,.7237.5251l8.355,1.2142a.6217.6217,0,0,0-.1114.6443l-1.4948,1.4576a.678.678,0,0,0-.26-.0525.6934.6934,0,0,0-.6917.6942.6817.6817,0,0,0,.0474.24l-1.5306,1.4909a.6744.6744,0,0,0-.36-.1153.694.694,0,0,0-.6929.6955.6769.6769,0,0,0,.105.3445l-.9261.9017a.9633.9633,0,0,0-.2754.85l1.1771,6.859a.6617.6617,0,0,0-.0807.3074.6866.6866,0,0,0,.219.5021l.1934,1.13ZM46.4866,26.185A.9583.9583,0,0,0,45.71,25.53L35.4508,24.04l-4.5893-9.2977a1.0013,1.0013,0,0,0-1.724,0L24.5495,24.04,14.2885,25.53a.9621.9621,0,0,0-.5328,1.6395l7.4251,7.2368-1.7522,10.22A.9617.9617,0,0,0,20.8222,45.64l9.1773-4.825,9.1786,4.825a.9617.9617,0,0,0,1.3936-1.0132l-1.7548-10.22L46.2433,27.17A.961.961,0,0,0,46.4866,26.185ZM31.1712,24.5a.6942.6942,0,1,0,.6929.6942.6926.6926,0,0,0-.6929-.6942M28.637,22.1787a.6942.6942,0,1,0,.6929.6942.6937.6937,0,0,0-.6929-.6942M21.18,29.1321a.6942.6942,0,1,0,.6929.6942.6937.6937,0,0,0-.6929-.6942m9.9917,0a.6942.6942,0,1,0,.6929.6942.6926.6926,0,0,0-.6929-.6942m-4.9958,0a.6942.6942,0,1,0,.6929.6942.6926.6926,0,0,0-.6929-.6942M28.637,26.81a.6949.6949,0,1,0,.6929.6955.694.694,0,0,0-.6929-.6955m-4.9958,0a.6949.6949,0,1,0,.6929.6955.694.694,0,0,0-.6929-.6955M36.167,30.5212a.6942.6942,0,1,0-.6917-.6942.6937.6937,0,0,0,.6917.6942M38.6287,28.2a.6949.6949,0,1,0-.6929-.6942.6937.6937,0,0,0,.6929.6942m-4.9958-1.39a.6949.6949,0,1,0,.6929.6955.694.694,0,0,0-.6929-.6955m-2.4617,6.954a.6942.6942,0,1,0,.6929.6942.6926.6926,0,0,0-.6929-.6942m-4.9958,0a.6942.6942,0,1,0,.6929.6942.6926.6926,0,0,0-.6929-.6942m2.4617-2.3222a.6949.6949,0,1,0,.6929.6942.6937.6937,0,0,0-.6929-.6942m-4.9958,0a.6949.6949,0,1,0,.6929.6942.6937.6937,0,0,0-.6929-.6942M36.167,33.7639a.6942.6942,0,1,0,.6929.6942.6934.6934,0,0,0-.6929-.6942m-2.5342-2.3222a.6949.6949,0,1,0,.6929.6942.6937.6937,0,0,0-.6929-.6942m-7.4575,6.9534a.6949.6949,0,1,0,.6929.6942.6926.6926,0,0,0-.6929-.6942m2.4617-2.3215a.6949.6949,0,1,0,.6929.6942.6937.6937,0,0,0-.6929-.6942m-4.9958,0a.6949.6949,0,1,0,.6929.6942.6937.6937,0,0,0-.6929-.6942M36.167,38.3951a.6949.6949,0,1,0,.6929.6942.6934.6934,0,0,0-.6929-.6942m-2.5342-2.3215a.6949.6949,0,1,0,.6929.6942.6937.6937,0,0,0-.6929-.6942" fill="#004f71"/>
</svg>
